<svg id="composerVector" xmlns="http://www.w3.org/2000/svg" xmlns:xlink="http://www.w3.org/1999/xlink" width="318.75" height="465"><rect width="318.75" height="465" fill="rgb(58, 28, 31)"/><path fill="rgb(255, 255, 255)" d="M39.23 27.32L40.05 27.32L40.05 25.68L39.23 25.68ZM39.23 30.61L40.05 30.61L40.05 28.96L39.23 28.96ZM39.23 40.46L40.05 40.46L40.05 38.82L39.23 38.82ZM39.23 43.75L40.05 43.75L40.05 42.11L39.23 42.11ZM42.52 27.32L43.34 27.32L43.34 25.68L42.52 25.68ZM42.52 30.61L43.34 30.61L43.34 28.96L42.52 28.96ZM42.52 40.46L43.34 40.46L43.34 38.82L42.52 38.82ZM42.52 43.75L43.34 43.75L43.34 42.11L42.52 42.11ZM32.66 20.75L33.48 20.75L33.48 19.11L32.66 19.11ZM32.66 24.04L33.48 24.04L33.48 22.39L32.66 22.39ZM39.23 33.89L40.05 33.89L40.05 32.25L39.23 32.25ZM39.23 37.18L40.05 37.18L40.05 35.54L39.23 35.54ZM32.66 47.04L33.48 47.04L33.48 45.39L32.66 45.39ZM32.66 50.32L33.48 50.32L33.48 48.68L32.66 48.68ZM35.95 20.75L36.77 20.75L36.77 19.11L35.95 19.11ZM35.95 24.04L36.77 24.04L36.77 22.39L35.95 22.39ZM42.52 33.89L43.34 33.89L43.34 32.25L42.52 32.25ZM42.52 37.18L43.34 37.18L43.34 35.54L42.52 35.54ZM35.95 47.04L36.77 47.04L36.77 45.39L35.95 45.39ZM35.95 50.32L36.77 50.32L36.77 48.68L35.95 48.68ZM26.09 20.75L26.91 20.75L26.91 19.11L26.09 19.11ZM26.09 24.04L26.91 24.04L26.91 22.39L26.09 22.39ZM26.09 47.04L26.91 47.04L26.91 45.39L26.09 45.39ZM26.09 50.32L26.91 50.32L26.91 48.68L26.09 48.68ZM29.38 20.75L30.20 20.75L30.20 19.11L29.38 19.11ZM29.38 24.04L30.20 24.04L30.20 22.39L29.38 22.39ZM29.38 47.04L30.20 47.04L30.20 45.39L29.38 45.39ZM29.38 50.32L30.20 50.32L30.20 48.68L29.38 48.68ZM19.52 20.75L20.34 20.75L20.34 19.11L19.52 19.11ZM19.52 24.04L20.34 24.04L20.34 22.39L19.52 22.39ZM19.52 27.32L20.34 27.32L20.34 25.68L19.52 25.68ZM19.52 30.61L20.34 30.61L20.34 28.96L19.52 28.96ZM19.52 33.89L20.34 33.89L20.34 32.25L19.52 32.25ZM19.52 37.18L20.34 37.18L20.34 35.54L19.52 35.54ZM19.52 40.46L20.34 40.46L20.34 38.82L19.52 38.82ZM19.52 43.75L20.34 43.75L20.34 42.11L19.52 42.11ZM19.52 47.04L20.34 47.04L20.34 45.39L19.52 45.39ZM19.52 50.32L20.34 50.32L20.34 48.68L19.52 48.68ZM22.80 20.75L23.63 20.75L23.63 19.11L22.80 19.11ZM22.80 24.04L23.63 24.04L23.63 22.39L22.80 22.39ZM22.80 27.32L23.63 27.32L23.63 25.68L22.80 25.68ZM22.80 30.61L23.63 30.61L23.63 28.96L22.80 28.96ZM22.80 33.89L23.63 33.89L23.63 32.25L22.80 32.25ZM22.80 37.18L23.63 37.18L23.63 35.54L22.80 35.54ZM22.80 40.46L23.63 40.46L23.63 38.82L22.80 38.82ZM22.80 43.75L23.63 43.75L23.63 42.11L22.80 42.11ZM22.80 47.04L23.63 47.04L23.63 45.39L22.80 45.39ZM22.80 50.32L23.63 50.32L23.63 48.68L22.80 48.68Z"/><path fill="rgb(255, 255, 255)" d="M70.23 47.04L71.05 47.04L71.05 45.39L70.23 45.39ZM70.23 27.32L71.05 27.32L71.05 25.68L70.23 25.68ZM70.23 30.61L71.05 30.61L71.05 28.96L70.23 28.96ZM70.23 40.46L71.05 40.46L71.05 38.82L70.23 38.82ZM70.23 43.75L71.05 43.75L71.05 42.11L70.23 42.11ZM73.52 27.32L74.34 27.32L74.34 25.68L73.52 25.68ZM73.52 30.61L74.34 30.61L74.34 28.96L73.52 28.96ZM73.52 40.46L74.34 40.46L74.34 38.82L73.52 38.82ZM73.52 43.75L74.34 43.75L74.34 42.11L73.52 42.11ZM70.23 33.89L71.05 33.89L71.05 32.25L70.23 32.25ZM70.23 37.18L71.05 37.18L71.05 35.54L70.23 35.54ZM63.66 47.04L64.48 47.04L64.48 45.39L63.66 45.39ZM63.66 50.32L64.48 50.32L64.48 48.68L63.66 48.68ZM73.52 33.89L74.34 33.89L74.34 32.25L73.52 32.25ZM73.52 37.18L74.34 37.18L74.34 35.54L73.52 35.54ZM66.95 47.04L67.77 47.04L67.77 45.39L66.95 45.39ZM66.95 50.32L67.77 50.32L67.77 48.68L66.95 48.68ZM57.09 47.04L57.91 47.04L57.91 45.39L57.09 45.39ZM57.09 50.32L57.91 50.32L57.91 48.68L57.09 48.68ZM60.38 47.04L61.20 47.04L61.20 45.39L60.38 45.39ZM60.38 50.32L61.20 50.32L61.20 48.68L60.38 48.68ZM50.52 27.32L51.34 27.32L51.34 25.68L50.52 25.68ZM50.52 30.61L51.34 30.61L51.34 28.96L50.52 28.96ZM50.52 33.89L51.34 33.89L51.34 32.25L50.52 32.25ZM50.52 37.18L51.34 37.18L51.34 35.54L50.52 35.54ZM50.52 40.46L51.34 40.46L51.34 38.82L50.52 38.82ZM50.52 43.75L51.34 43.75L51.34 42.11L50.52 42.11ZM70.23 50.32L71.05 50.32L71.05 48.68L70.23 48.68ZM53.80 27.32L54.63 27.32L54.63 25.68L53.80 25.68ZM53.80 30.61L54.63 30.61L54.63 28.96L53.80 28.96ZM53.80 33.89L54.63 33.89L54.63 32.25L53.80 32.25ZM53.80 37.18L54.63 37.18L54.63 35.54L53.80 35.54ZM53.80 40.46L54.63 40.46L54.63 38.82L53.80 38.82ZM53.80 43.75L54.63 43.75L54.63 42.11L53.80 42.11ZM73.52 47.04L74.34 47.04L74.34 45.39L73.52 45.39ZM73.52 50.32L74.34 50.32L74.34 48.68L73.52 48.68Z"/><path fill="rgb(255, 255, 255)" d="M95.66 40.46L96.48 40.46L96.48 38.82L95.66 38.82ZM95.66 43.75L96.48 43.75L96.48 42.11L95.66 42.11ZM92.38 40.46L93.20 40.46L93.20 38.82L92.38 38.82ZM92.38 43.75L93.20 43.75L93.20 42.11L92.38 42.11ZM95.66 33.89L96.48 33.89L96.48 32.25L95.66 32.25ZM95.66 37.18L96.48 37.18L96.48 35.54L95.66 35.54ZM92.38 33.89L93.20 33.89L93.20 32.25L92.38 32.25ZM92.38 37.18L93.20 37.18L93.20 35.54L92.38 35.54ZM95.66 47.04L96.48 47.04L96.48 45.39L95.66 45.39ZM95.66 50.32L96.48 50.32L96.48 48.68L95.66 48.68ZM102.23 33.89L103.05 33.89L103.05 32.25L102.23 32.25ZM102.23 37.18L103.05 37.18L103.05 35.54L102.23 35.54ZM102.23 47.04L103.05 47.04L103.05 45.39L102.23 45.39ZM102.23 50.32L103.05 50.32L103.05 48.68L102.23 48.68ZM105.52 33.89L106.34 33.89L106.34 32.25L105.52 32.25ZM105.52 37.18L106.34 37.18L106.34 35.54L105.52 35.54ZM105.52 47.04L106.34 47.04L106.34 45.39L105.52 45.39ZM95.66 27.32L96.48 27.32L96.48 25.68L95.66 25.68ZM95.66 30.61L96.48 30.61L96.48 28.96L95.66 28.96ZM102.23 40.46L103.05 40.46L103.05 38.82L102.23 38.82ZM102.23 43.75L103.05 43.75L103.05 42.11L102.23 42.11ZM98.95 27.32L99.77 27.32L99.77 25.68L98.95 25.68ZM98.95 30.61L99.77 30.61L99.77 28.96L98.95 28.96ZM105.52 40.46L106.34 40.46L106.34 38.82L105.52 38.82ZM105.52 43.75L106.34 43.75L106.34 42.11L105.52 42.11ZM89.09 27.32L89.91 27.32L89.91 25.68L89.09 25.68ZM89.09 30.61L89.91 30.61L89.91 28.96L89.09 28.96ZM92.38 47.04L93.20 47.04L93.20 45.39L92.38 45.39ZM92.38 50.32L93.20 50.32L93.20 48.68L92.38 48.68ZM92.38 27.32L93.20 27.32L93.20 25.68L92.38 25.68ZM92.38 30.61L93.20 30.61L93.20 28.96L92.38 28.96ZM82.52 27.32L83.34 27.32L83.34 25.68L82.52 25.68ZM82.52 30.61L83.34 30.61L83.34 28.96L82.52 28.96ZM82.52 33.89L83.34 33.89L83.34 32.25L82.52 32.25ZM82.52 37.18L83.34 37.18L83.34 35.54L82.52 35.54ZM82.52 40.46L83.34 40.46L83.34 38.82L82.52 38.82ZM82.52 43.75L83.34 43.75L83.34 42.11L82.52 42.11ZM82.52 47.04L83.34 47.04L83.34 45.39L82.52 45.39ZM82.52 50.32L83.34 50.32L83.34 48.68L82.52 48.68ZM85.80 27.32L86.63 27.32L86.63 25.68L85.80 25.68ZM85.80 30.61L86.63 30.61L86.63 28.96L85.80 28.96ZM85.80 33.89L86.63 33.89L86.63 32.25L85.80 32.25ZM85.80 37.18L86.63 37.18L86.63 35.54L85.80 35.54ZM85.80 40.46L86.63 40.46L86.63 38.82L85.80 38.82ZM85.80 43.75L86.63 43.75L86.63 42.11L85.80 42.11ZM85.80 47.04L86.63 47.04L86.63 45.39L85.80 45.39ZM85.80 50.32L86.63 50.32L86.63 48.68L85.80 48.68ZM105.52 50.32L106.34 50.32L106.34 48.68L105.52 48.68Z"/><path fill="rgb(255, 255, 255)" d="M126.66 40.46L127.48 40.46L127.48 38.82L126.66 38.82ZM126.66 43.75L127.48 43.75L127.48 42.11L126.66 42.11ZM123.38 40.46L124.20 40.46L124.20 38.82L123.38 38.82ZM123.38 43.75L124.20 43.75L124.20 42.11L123.38 42.11ZM126.66 33.89L127.48 33.89L127.48 32.25L126.66 32.25ZM126.66 37.18L127.48 37.18L127.48 35.54L126.66 35.54ZM123.38 33.89L124.20 33.89L124.20 32.25L123.38 32.25ZM123.38 37.18L124.20 37.18L124.20 35.54L123.38 35.54ZM126.66 47.04L127.48 47.04L127.48 45.39L126.66 45.39ZM126.66 50.32L127.48 50.32L127.48 48.68L126.66 48.68ZM133.23 33.89L134.05 33.89L134.05 32.25L133.23 32.25ZM133.23 37.18L134.05 37.18L134.05 35.54L133.23 35.54ZM133.23 47.04L134.05 47.04L134.05 45.39L133.23 45.39ZM133.23 50.32L134.05 50.32L134.05 48.68L133.23 48.68ZM136.52 33.89L137.34 33.89L137.34 32.25L136.52 32.25ZM136.52 37.18L137.34 37.18L137.34 35.54L136.52 35.54ZM136.52 47.04L137.34 47.04L137.34 45.39L136.52 45.39ZM126.66 27.32L127.48 27.32L127.48 25.68L126.66 25.68ZM126.66 30.61L127.48 30.61L127.48 28.96L126.66 28.96ZM133.23 40.46L134.05 40.46L134.05 38.82L133.23 38.82ZM133.23 43.75L134.05 43.75L134.05 42.11L133.23 42.11ZM129.95 27.32L130.77 27.32L130.77 25.68L129.95 25.68ZM129.95 30.61L130.77 30.61L130.77 28.96L129.95 28.96ZM136.52 40.46L137.34 40.46L137.34 38.82L136.52 38.82ZM136.52 43.75L137.34 43.75L137.34 42.11L136.52 42.11ZM120.09 27.32L120.91 27.32L120.91 25.68L120.09 25.68ZM120.09 30.61L120.91 30.61L120.91 28.96L120.09 28.96ZM123.38 47.04L124.20 47.04L124.20 45.39L123.38 45.39ZM123.38 50.32L124.20 50.32L124.20 48.68L123.38 48.68ZM123.38 27.32L124.20 27.32L124.20 25.68L123.38 25.68ZM123.38 30.61L124.20 30.61L124.20 28.96L123.38 28.96ZM113.52 27.32L114.34 27.32L114.34 25.68L113.52 25.68ZM113.52 30.61L114.34 30.61L114.34 28.96L113.52 28.96ZM113.52 33.89L114.34 33.89L114.34 32.25L113.52 32.25ZM113.52 37.18L114.34 37.18L114.34 35.54L113.52 35.54ZM113.52 40.46L114.34 40.46L114.34 38.82L113.52 38.82ZM113.52 43.75L114.34 43.75L114.34 42.11L113.52 42.11ZM113.52 47.04L114.34 47.04L114.34 45.39L113.52 45.39ZM113.52 50.32L114.34 50.32L114.34 48.68L113.52 48.68ZM116.80 27.32L117.63 27.32L117.63 25.68L116.80 25.68ZM116.80 30.61L117.63 30.61L117.63 28.96L116.80 28.96ZM116.80 33.89L117.63 33.89L117.63 32.25L116.80 32.25ZM116.80 37.18L117.63 37.18L117.63 35.54L116.80 35.54ZM116.80 40.46L117.63 40.46L117.63 38.82L116.80 38.82ZM116.80 43.75L117.63 43.75L117.63 42.11L116.80 42.11ZM116.80 47.04L117.63 47.04L117.63 45.39L116.80 45.39ZM116.80 50.32L117.63 50.32L117.63 48.68L116.80 48.68ZM136.52 50.32L137.34 50.32L137.34 48.68L136.52 48.68Z"/><path fill="rgb(255, 255, 255)" d="M157.66 56.89L158.48 56.89L158.48 55.25L157.66 55.25ZM157.66 60.18L158.48 60.18L158.48 58.54L157.66 58.54ZM160.95 56.89L161.77 56.89L161.77 55.25L160.95 55.25ZM160.95 60.18L161.77 60.18L161.77 58.54L160.95 58.54ZM151.09 56.89L151.91 56.89L151.91 55.25L151.09 55.25ZM151.09 60.18L151.91 60.18L151.91 58.54L151.09 58.54ZM154.38 56.89L155.20 56.89L155.20 55.25L154.38 55.25ZM154.38 60.18L155.20 60.18L155.20 58.54L154.38 58.54ZM144.52 56.89L145.34 56.89L145.34 55.25L144.52 55.25ZM144.52 60.18L145.34 60.18L145.34 58.54L144.52 58.54ZM147.80 56.89L148.63 56.89L148.63 55.25L147.80 55.25ZM147.80 60.18L148.63 60.18L148.63 58.54L147.80 58.54ZM164.23 53.61L165.05 53.61L165.05 51.96L164.23 51.96ZM167.52 53.61L168.34 53.61L168.34 51.96L167.52 51.96ZM164.23 47.04L165.05 47.04L165.05 45.39L164.23 45.39ZM164.23 27.32L165.05 27.32L165.05 25.68L164.23 25.68ZM164.23 30.61L165.05 30.61L165.05 28.96L164.23 28.96ZM164.23 40.46L165.05 40.46L165.05 38.82L164.23 38.82ZM164.23 43.75L165.05 43.75L165.05 42.11L164.23 42.11ZM167.52 27.32L168.34 27.32L168.34 25.68L167.52 25.68ZM167.52 30.61L168.34 30.61L168.34 28.96L167.52 28.96ZM167.52 40.46L168.34 40.46L168.34 38.82L167.52 38.82ZM167.52 43.75L168.34 43.75L168.34 42.11L167.52 42.11ZM164.23 33.89L165.05 33.89L165.05 32.25L164.23 32.25ZM164.23 37.18L165.05 37.18L165.05 35.54L164.23 35.54ZM157.66 47.04L158.48 47.04L158.48 45.39L157.66 45.39ZM157.66 50.32L158.48 50.32L158.48 48.68L157.66 48.68ZM167.52 33.89L168.34 33.89L168.34 32.25L167.52 32.25ZM167.52 37.18L168.34 37.18L168.34 35.54L167.52 35.54ZM160.95 47.04L161.77 47.04L161.77 45.39L160.95 45.39ZM160.95 50.32L161.77 50.32L161.77 48.68L160.95 48.68ZM151.09 47.04L151.91 47.04L151.91 45.39L151.09 45.39ZM151.09 50.32L151.91 50.32L151.91 48.68L151.09 48.68ZM154.38 47.04L155.20 47.04L155.20 45.39L154.38 45.39ZM154.38 50.32L155.20 50.32L155.20 48.68L154.38 48.68ZM144.52 27.32L145.34 27.32L145.34 25.68L144.52 25.68ZM144.52 30.61L145.34 30.61L145.34 28.96L144.52 28.96ZM144.52 33.89L145.34 33.89L145.34 32.25L144.52 32.25ZM144.52 37.18L145.34 37.18L145.34 35.54L144.52 35.54ZM144.52 40.46L145.34 40.46L145.34 38.82L144.52 38.82ZM144.52 43.75L145.34 43.75L145.34 42.11L144.52 42.11ZM164.23 50.32L165.05 50.32L165.05 48.68L164.23 48.68ZM147.80 27.32L148.63 27.32L148.63 25.68L147.80 25.68ZM147.80 30.61L148.63 30.61L148.63 28.96L147.80 28.96ZM147.80 33.89L148.63 33.89L148.63 32.25L147.80 32.25ZM147.80 37.18L148.63 37.18L148.63 35.54L147.80 35.54ZM147.80 40.46L148.63 40.46L148.63 38.82L147.80 38.82ZM147.80 43.75L148.63 43.75L148.63 42.11L147.80 42.11ZM167.52 47.04L168.34 47.04L168.34 45.39L167.52 45.39ZM167.52 50.32L168.34 50.32L168.34 48.68L167.52 48.68Z"/><path fill="rgb(255, 255, 255)" d="M30.20 74.96L29.38 74.96L29.38 76.61L30.20 76.61ZM30.20 71.68L29.38 71.68L29.38 73.32L30.20 73.32ZM26.91 74.96L26.09 74.96L26.09 76.61L26.91 76.61ZM26.91 71.68L26.09 71.68L26.09 73.32L26.91 73.32ZM40.05 68.39L39.23 68.39L39.23 70.04L40.05 70.04ZM40.05 65.11L39.23 65.11L39.23 66.75L40.05 66.75ZM40.05 61.82L39.23 61.82L39.23 63.46L40.05 63.46ZM43.34 68.39L42.52 68.39L42.52 70.04L43.34 70.04ZM43.34 65.11L42.52 65.11L42.52 66.75L43.34 66.75ZM43.34 61.82L42.52 61.82L42.52 63.46L43.34 63.46ZM23.63 88.11L22.80 88.11L22.80 89.75L23.63 89.75ZM23.63 84.82L22.80 84.82L22.80 86.46L23.63 86.46ZM36.77 74.96L35.95 74.96L35.95 76.61L36.77 76.61ZM36.77 71.68L35.95 71.68L35.95 73.32L36.77 73.32ZM20.34 88.11L19.52 88.11L19.52 89.75L20.34 89.75ZM20.34 84.82L19.52 84.82L19.52 86.46L20.34 86.46ZM33.48 74.96L32.66 74.96L32.66 76.61L33.48 76.61ZM33.48 71.68L32.66 71.68L32.66 73.32L33.48 73.32ZM30.20 94.68L29.38 94.68L29.38 96.32L30.20 96.32ZM30.20 91.39L29.38 91.39L29.38 93.04L30.20 93.04ZM23.63 81.54L22.80 81.54L22.80 83.18L23.63 83.18ZM23.63 78.25L22.80 78.25L22.80 79.89L23.63 79.89ZM26.91 94.68L26.09 94.68L26.09 96.32L26.91 96.32ZM26.91 91.39L26.09 91.39L26.09 93.04L26.91 93.04ZM20.34 81.54L19.52 81.54L19.52 83.18L20.34 83.18ZM20.34 78.25L19.52 78.25L19.52 79.89L20.34 79.89ZM36.77 94.68L35.95 94.68L35.95 96.32L36.77 96.32ZM36.77 91.39L35.95 91.39L35.95 93.04L36.77 93.04ZM33.48 94.68L32.66 94.68L32.66 96.32L33.48 96.32ZM33.48 91.39L32.66 91.39L32.66 93.04L33.48 93.04ZM43.34 94.68L42.52 94.68L42.52 96.32L43.34 96.32ZM43.34 91.39L42.52 91.39L42.52 93.04L43.34 93.04ZM43.34 88.11L42.52 88.11L42.52 89.75L43.34 89.75ZM43.34 84.82L42.52 84.82L42.52 86.46L43.34 86.46ZM43.34 81.54L42.52 81.54L42.52 83.18L43.34 83.18ZM43.34 78.25L42.52 78.25L42.52 79.89L43.34 79.89ZM43.34 74.96L42.52 74.96L42.52 76.61L43.34 76.61ZM43.34 71.68L42.52 71.68L42.52 73.32L43.34 73.32ZM40.05 94.68L39.23 94.68L39.23 96.32L40.05 96.32ZM40.05 91.39L39.23 91.39L39.23 93.04L40.05 93.04ZM40.05 88.11L39.23 88.11L39.23 89.75L40.05 89.75ZM40.05 84.82L39.23 84.82L39.23 86.46L40.05 86.46ZM40.05 81.54L39.23 81.54L39.23 83.18L40.05 83.18ZM40.05 78.25L39.23 78.25L39.23 79.89L40.05 79.89ZM40.05 74.96L39.23 74.96L39.23 76.61L40.05 76.61ZM40.05 71.68L39.23 71.68L39.23 73.32L40.05 73.32Z"/><path fill="rgb(255, 255, 255)" d="M50.52 89.75L51.34 89.75L51.34 88.11L50.52 88.11ZM53.80 89.75L54.63 89.75L54.63 88.11L53.80 88.11ZM70.23 83.18L71.05 83.18L71.05 81.54L70.23 81.54ZM70.23 86.46L71.05 86.46L71.05 84.82L70.23 84.82ZM73.52 83.18L74.34 83.18L74.34 81.54L73.52 81.54ZM73.52 86.46L74.34 86.46L74.34 84.82L73.52 84.82ZM70.23 93.04L71.05 93.04L71.05 91.39L70.23 91.39ZM70.23 96.32L71.05 96.32L71.05 94.68L70.23 94.68ZM70.23 89.75L71.05 89.75L71.05 88.11L70.23 88.11ZM73.52 93.04L74.34 93.04L74.34 91.39L73.52 91.39ZM73.52 96.32L74.34 96.32L74.34 94.68L73.52 94.68ZM73.52 89.75L74.34 89.75L74.34 88.11L73.52 88.11ZM63.66 73.32L64.48 73.32L64.48 71.68L63.66 71.68ZM63.66 76.61L64.48 76.61L64.48 74.96L63.66 74.96ZM63.66 83.18L64.48 83.18L64.48 81.54L63.66 81.54ZM63.66 86.46L64.48 86.46L64.48 84.82L63.66 84.82ZM63.66 93.04L64.48 93.04L64.48 91.39L63.66 91.39ZM63.66 96.32L64.48 96.32L64.48 94.68L63.66 94.68ZM66.95 73.32L67.77 73.32L67.77 71.68L66.95 71.68ZM66.95 76.61L67.77 76.61L67.77 74.96L66.95 74.96ZM66.95 83.18L67.77 83.18L67.77 81.54L66.95 81.54ZM66.95 86.46L67.77 86.46L67.77 84.82L66.95 84.82ZM66.95 93.04L67.77 93.04L67.77 91.39L66.95 91.39ZM66.95 96.32L67.77 96.32L67.77 94.68L66.95 94.68ZM57.09 73.32L57.91 73.32L57.91 71.68L57.09 71.68ZM57.09 76.61L57.91 76.61L57.91 74.96L57.09 74.96ZM57.09 83.18L57.91 83.18L57.91 81.54L57.09 81.54ZM57.09 86.46L57.91 86.46L57.91 84.82L57.09 84.82ZM57.09 93.04L57.91 93.04L57.91 91.39L57.09 91.39ZM57.09 96.32L57.91 96.32L57.91 94.68L57.09 94.68ZM60.38 73.32L61.20 73.32L61.20 71.68L60.38 71.68ZM60.38 76.61L61.20 76.61L61.20 74.96L60.38 74.96ZM60.38 83.18L61.20 83.18L61.20 81.54L60.38 81.54ZM60.38 86.46L61.20 86.46L61.20 84.82L60.38 84.82ZM60.38 93.04L61.20 93.04L61.20 91.39L60.38 91.39ZM60.38 96.32L61.20 96.32L61.20 94.68L60.38 94.68ZM70.23 79.89L71.05 79.89L71.05 78.25L70.23 78.25ZM50.52 83.18L51.34 83.18L51.34 81.54L50.52 81.54ZM50.52 86.46L51.34 86.46L51.34 84.82L50.52 84.82ZM50.52 73.32L51.34 73.32L51.34 71.68L50.52 71.68ZM50.52 76.61L51.34 76.61L51.34 74.96L50.52 74.96ZM73.52 79.89L74.34 79.89L74.34 78.25L73.52 78.25ZM53.80 83.18L54.63 83.18L54.63 81.54L53.80 81.54ZM53.80 86.46L54.63 86.46L54.63 84.82L53.80 84.82ZM53.80 73.32L54.63 73.32L54.63 71.68L53.80 71.68ZM53.80 76.61L54.63 76.61L54.63 74.96L53.80 74.96Z"/><path fill="rgb(255, 255, 255)" d="M95.66 93.04L96.48 93.04L96.48 91.39L95.66 91.39ZM95.66 96.32L96.48 96.32L96.48 94.68L95.66 94.68ZM98.95 93.04L99.77 93.04L99.77 91.39L98.95 91.39ZM98.95 96.32L99.77 96.32L99.77 94.68L98.95 94.68ZM105.52 93.04L106.34 93.04L106.34 91.39L105.52 91.39ZM105.52 96.32L106.34 96.32L106.34 94.68L105.52 94.68ZM82.52 73.32L83.34 73.32L83.34 71.68L82.52 71.68ZM82.52 76.61L83.34 76.61L83.34 74.96L82.52 74.96ZM85.80 73.32L86.63 73.32L86.63 71.68L85.80 71.68ZM85.80 76.61L86.63 76.61L86.63 74.96L85.80 74.96ZM89.09 79.89L89.91 79.89L89.91 78.25L89.09 78.25ZM92.38 79.89L93.20 79.89L93.20 78.25L92.38 78.25ZM92.38 89.75L93.20 89.75L93.20 88.11L92.38 88.11ZM102.23 73.32L103.05 73.32L103.05 71.68L102.23 71.68ZM102.23 76.61L103.05 76.61L103.05 74.96L102.23 74.96ZM102.23 93.04L103.05 93.04L103.05 91.39L102.23 91.39ZM102.23 96.32L103.05 96.32L103.05 94.68L102.23 94.68ZM105.52 73.32L106.34 73.32L106.34 71.68L105.52 71.68ZM105.52 76.61L106.34 76.61L106.34 74.96L105.52 74.96ZM89.09 89.75L89.91 89.75L89.91 88.11L89.09 88.11ZM89.09 66.75L89.91 66.75L89.91 65.11L89.09 65.11ZM95.66 73.32L96.48 73.32L96.48 71.68L95.66 71.68ZM95.66 76.61L96.48 76.61L96.48 74.96L95.66 74.96ZM89.09 83.18L89.91 83.18L89.91 81.54L89.09 81.54ZM89.09 86.46L89.91 86.46L89.91 84.82L89.09 84.82ZM92.38 66.75L93.20 66.75L93.20 65.11L92.38 65.11ZM98.95 73.32L99.77 73.32L99.77 71.68L98.95 71.68ZM98.95 76.61L99.77 76.61L99.77 74.96L98.95 74.96ZM92.38 83.18L93.20 83.18L93.20 81.54L92.38 81.54ZM92.38 86.46L93.20 86.46L93.20 84.82L92.38 84.82ZM89.09 73.32L89.91 73.32L89.91 71.68L89.09 71.68ZM89.09 76.61L89.91 76.61L89.91 74.96L89.09 74.96ZM89.09 70.04L89.91 70.04L89.91 68.39L89.09 68.39ZM92.38 73.32L93.20 73.32L93.20 71.68L92.38 71.68ZM92.38 76.61L93.20 76.61L93.20 74.96L92.38 74.96ZM92.38 70.04L93.20 70.04L93.20 68.39L92.38 68.39Z"/><path fill="rgb(255, 255, 255)" d="M113.52 89.75L114.34 89.75L114.34 88.11L113.52 88.11ZM116.80 89.75L117.63 89.75L117.63 88.11L116.80 88.11ZM133.23 83.18L134.05 83.18L134.05 81.54L133.23 81.54ZM133.23 86.46L134.05 86.46L134.05 84.82L133.23 84.82ZM136.52 83.18L137.34 83.18L137.34 81.54L136.52 81.54ZM136.52 86.46L137.34 86.46L137.34 84.82L136.52 84.82ZM133.23 93.04L134.05 93.04L134.05 91.39L133.23 91.39ZM133.23 96.32L134.05 96.32L134.05 94.68L133.23 94.68ZM133.23 89.75L134.05 89.75L134.05 88.11L133.23 88.11ZM136.52 93.04L137.34 93.04L137.34 91.39L136.52 91.39ZM136.52 96.32L137.34 96.32L137.34 94.68L136.52 94.68ZM136.52 89.75L137.34 89.75L137.34 88.11L136.52 88.11ZM126.66 73.32L127.48 73.32L127.48 71.68L126.66 71.68ZM126.66 76.61L127.48 76.61L127.48 74.96L126.66 74.96ZM126.66 83.18L127.48 83.18L127.48 81.54L126.66 81.54ZM126.66 86.46L127.48 86.46L127.48 84.82L126.66 84.82ZM126.66 93.04L127.48 93.04L127.48 91.39L126.66 91.39ZM126.66 96.32L127.48 96.32L127.48 94.68L126.66 94.68ZM129.95 73.32L130.77 73.32L130.77 71.68L129.95 71.68ZM129.95 76.61L130.77 76.61L130.77 74.96L129.95 74.96ZM129.95 83.18L130.77 83.18L130.77 81.54L129.95 81.54ZM129.95 86.46L130.77 86.46L130.77 84.82L129.95 84.82ZM129.95 93.04L130.77 93.04L130.77 91.39L129.95 91.39ZM129.95 96.32L130.77 96.32L130.77 94.68L129.95 94.68ZM120.09 73.32L120.91 73.32L120.91 71.68L120.09 71.68ZM120.09 76.61L120.91 76.61L120.91 74.96L120.09 74.96ZM120.09 83.18L120.91 83.18L120.91 81.54L120.09 81.54ZM120.09 86.46L120.91 86.46L120.91 84.82L120.09 84.82ZM120.09 93.04L120.91 93.04L120.91 91.39L120.09 91.39ZM120.09 96.32L120.91 96.32L120.91 94.68L120.09 94.68ZM123.38 73.32L124.20 73.32L124.20 71.68L123.38 71.68ZM123.38 76.61L124.20 76.61L124.20 74.96L123.38 74.96ZM123.38 83.18L124.20 83.18L124.20 81.54L123.38 81.54ZM123.38 86.46L124.20 86.46L124.20 84.82L123.38 84.82ZM123.38 93.04L124.20 93.04L124.20 91.39L123.38 91.39ZM123.38 96.32L124.20 96.32L124.20 94.68L123.38 94.68ZM133.23 79.89L134.05 79.89L134.05 78.25L133.23 78.25ZM113.52 83.18L114.34 83.18L114.34 81.54L113.52 81.54ZM113.52 86.46L114.34 86.46L114.34 84.82L113.52 84.82ZM113.52 73.32L114.34 73.32L114.34 71.68L113.52 71.68ZM113.52 76.61L114.34 76.61L114.34 74.96L113.52 74.96ZM136.52 79.89L137.34 79.89L137.34 78.25L136.52 78.25ZM116.80 83.18L117.63 83.18L117.63 81.54L116.80 81.54ZM116.80 86.46L117.63 86.46L117.63 84.82L116.80 84.82ZM116.80 73.32L117.63 73.32L117.63 71.68L116.80 71.68ZM116.80 76.61L117.63 76.61L117.63 74.96L116.80 74.96Z"/><path fill="rgb(255, 255, 255)" d="M189.66 93.04L190.48 93.04L190.48 91.39L189.66 91.39ZM189.66 96.32L190.48 96.32L190.48 94.68L189.66 94.68ZM192.95 93.04L193.77 93.04L193.77 91.39L192.95 91.39ZM192.95 96.32L193.77 96.32L193.77 94.68L192.95 94.68ZM183.09 93.04L183.91 93.04L183.91 91.39L183.09 91.39ZM183.09 96.32L183.91 96.32L183.91 94.68L183.09 94.68ZM186.38 93.04L187.20 93.04L187.20 91.39L186.38 91.39ZM186.38 96.32L187.20 96.32L187.20 94.68L186.38 94.68ZM176.52 93.04L177.34 93.04L177.34 91.39L176.52 91.39ZM176.52 96.32L177.34 96.32L177.34 94.68L176.52 94.68ZM179.80 93.04L180.63 93.04L180.63 91.39L179.80 91.39ZM179.80 96.32L180.63 96.32L180.63 94.68L179.80 94.68ZM176.52 73.32L177.34 73.32L177.34 71.68L176.52 71.68ZM176.52 76.61L177.34 76.61L177.34 74.96L176.52 74.96ZM179.80 73.32L180.63 73.32L180.63 71.68L179.80 71.68ZM179.80 76.61L180.63 76.61L180.63 74.96L179.80 74.96ZM183.09 79.89L183.91 79.89L183.91 78.25L183.09 78.25ZM186.38 79.89L187.20 79.89L187.20 78.25L186.38 78.25ZM186.38 89.75L187.20 89.75L187.20 88.11L186.38 88.11ZM196.23 63.46L197.05 63.46L197.05 61.82L196.23 61.82ZM196.23 66.75L197.05 66.75L197.05 65.11L196.23 65.11ZM196.23 73.32L197.05 73.32L197.05 71.68L196.23 71.68ZM196.23 76.61L197.05 76.61L197.05 74.96L196.23 74.96ZM196.23 93.04L197.05 93.04L197.05 91.39L196.23 91.39ZM196.23 96.32L197.05 96.32L197.05 94.68L196.23 94.68ZM199.52 63.46L200.34 63.46L200.34 61.82L199.52 61.82ZM199.52 66.75L200.34 66.75L200.34 65.11L199.52 65.11ZM199.52 73.32L200.34 73.32L200.34 71.68L199.52 71.68ZM199.52 76.61L200.34 76.61L200.34 74.96L199.52 74.96ZM183.09 89.75L183.91 89.75L183.91 88.11L183.09 88.11ZM189.66 63.46L190.48 63.46L190.48 61.82L189.66 61.82ZM189.66 66.75L190.48 66.75L190.48 65.11L189.66 65.11ZM189.66 73.32L190.48 73.32L190.48 71.68L189.66 71.68ZM189.66 76.61L190.48 76.61L190.48 74.96L189.66 74.96ZM183.09 83.18L183.91 83.18L183.91 81.54L183.09 81.54ZM183.09 86.46L183.91 86.46L183.91 84.82L183.09 84.82ZM192.95 63.46L193.77 63.46L193.77 61.82L192.95 61.82ZM192.95 66.75L193.77 66.75L193.77 65.11L192.95 65.11ZM192.95 73.32L193.77 73.32L193.77 71.68L192.95 71.68ZM192.95 76.61L193.77 76.61L193.77 74.96L192.95 74.96ZM186.38 83.18L187.20 83.18L187.20 81.54L186.38 81.54ZM186.38 86.46L187.20 86.46L187.20 84.82L186.38 84.82ZM183.09 73.32L183.91 73.32L183.91 71.68L183.09 71.68ZM183.09 76.61L183.91 76.61L183.91 74.96L183.09 74.96ZM183.09 70.04L183.91 70.04L183.91 68.39L183.09 68.39ZM186.38 73.32L187.20 73.32L187.20 71.68L186.38 71.68ZM186.38 76.61L187.20 76.61L187.20 74.96L186.38 74.96ZM186.38 70.04L187.20 70.04L187.20 68.39L186.38 68.39Z"/><path fill="rgb(255, 255, 255)" d="M227.23 79.89L228.05 79.89L228.05 78.25L227.23 78.25ZM227.23 83.18L228.05 83.18L228.05 81.54L227.23 81.54ZM227.23 86.46L228.05 86.46L228.05 84.82L227.23 84.82ZM227.23 89.75L228.05 89.75L228.05 88.11L227.23 88.11ZM230.52 79.89L231.34 79.89L231.34 78.25L230.52 78.25ZM230.52 83.18L231.34 83.18L231.34 81.54L230.52 81.54ZM230.52 86.46L231.34 86.46L231.34 84.82L230.52 84.82ZM230.52 89.75L231.34 89.75L231.34 88.11L230.52 88.11ZM220.66 73.32L221.48 73.32L221.48 71.68L220.66 71.68ZM220.66 76.61L221.48 76.61L221.48 74.96L220.66 74.96ZM220.66 93.04L221.48 93.04L221.48 91.39L220.66 91.39ZM220.66 96.32L221.48 96.32L221.48 94.68L220.66 94.68ZM223.95 73.32L224.77 73.32L224.77 71.68L223.95 71.68ZM223.95 76.61L224.77 76.61L224.77 74.96L223.95 74.96ZM223.95 93.04L224.77 93.04L224.77 91.39L223.95 91.39ZM223.95 96.32L224.77 96.32L224.77 94.68L223.95 94.68ZM214.09 73.32L214.91 73.32L214.91 71.68L214.09 71.68ZM214.09 76.61L214.91 76.61L214.91 74.96L214.09 74.96ZM214.09 93.04L214.91 93.04L214.91 91.39L214.09 91.39ZM214.09 96.32L214.91 96.32L214.91 94.68L214.09 94.68ZM217.38 73.32L218.20 73.32L218.20 71.68L217.38 71.68ZM217.38 76.61L218.20 76.61L218.20 74.96L217.38 74.96ZM217.38 93.04L218.20 93.04L218.20 91.39L217.38 91.39ZM217.38 96.32L218.20 96.32L218.20 94.68L217.38 94.68ZM207.52 79.89L208.34 79.89L208.34 78.25L207.52 78.25ZM207.52 83.18L208.34 83.18L208.34 81.54L207.52 81.54ZM207.52 86.46L208.34 86.46L208.34 84.82L207.52 84.82ZM207.52 89.75L208.34 89.75L208.34 88.11L207.52 88.11ZM210.80 79.89L211.63 79.89L211.63 78.25L210.80 78.25ZM210.80 83.18L211.63 83.18L211.63 81.54L210.80 81.54ZM210.80 86.46L211.63 86.46L211.63 84.82L210.80 84.82ZM210.80 89.75L211.63 89.75L211.63 88.11L210.80 88.11Z"/><path fill="rgb(255, 255, 255)" d="M255.95 73.32L256.77 73.32L256.77 71.68L255.95 71.68ZM255.95 76.61L256.77 76.61L256.77 74.96L255.95 74.96ZM262.52 73.32L263.34 73.32L263.34 71.68L262.52 71.68ZM259.23 73.32L260.05 73.32L260.05 71.68L259.23 71.68ZM242.80 76.61L243.63 76.61L243.63 74.96L242.80 74.96ZM242.80 73.32L243.63 73.32L243.63 71.68L242.80 71.68ZM239.52 76.61L240.34 76.61L240.34 74.96L239.52 74.96ZM239.52 73.32L240.34 73.32L240.34 71.68L239.52 71.68ZM242.80 93.04L243.63 93.04L243.63 91.39L242.80 91.39ZM242.80 96.32L243.63 96.32L243.63 94.68L242.80 94.68ZM252.66 73.32L253.48 73.32L253.48 71.68L252.66 71.68ZM252.66 76.61L253.48 76.61L253.48 74.96L252.66 74.96ZM252.66 93.04L253.48 93.04L253.48 91.39L252.66 91.39ZM252.66 96.32L253.48 96.32L253.48 94.68L252.66 94.68ZM259.23 93.04L260.05 93.04L260.05 91.39L259.23 91.39ZM259.23 96.32L260.05 96.32L260.05 94.68L259.23 94.68ZM239.52 93.04L240.34 93.04L240.34 91.39L239.52 91.39ZM239.52 96.32L240.34 96.32L240.34 94.68L239.52 94.68ZM255.95 93.04L256.77 93.04L256.77 91.39L255.95 91.39ZM255.95 96.32L256.77 96.32L256.77 94.68L255.95 94.68ZM259.23 76.61L260.05 76.61L260.05 74.96L259.23 74.96ZM259.23 79.89L260.05 79.89L260.05 78.25L259.23 78.25ZM259.23 83.18L260.05 83.18L260.05 81.54L259.23 81.54ZM246.09 79.89L246.91 79.89L246.91 78.25L246.09 78.25ZM246.09 83.18L246.91 83.18L246.91 81.54L246.09 81.54ZM246.09 86.46L246.91 86.46L246.91 84.82L246.09 84.82ZM246.09 89.75L246.91 89.75L246.91 88.11L246.09 88.11ZM246.09 93.04L246.91 93.04L246.91 91.39L246.09 91.39ZM246.09 96.32L246.91 96.32L246.91 94.68L246.09 94.68ZM262.52 76.61L263.34 76.61L263.34 74.96L262.52 74.96ZM262.52 79.89L263.34 79.89L263.34 78.25L262.52 78.25ZM262.52 83.18L263.34 83.18L263.34 81.54L262.52 81.54ZM249.38 79.89L250.20 79.89L250.20 78.25L249.38 78.25ZM249.38 83.18L250.20 83.18L250.20 81.54L249.38 81.54ZM249.38 86.46L250.20 86.46L250.20 84.82L249.38 84.82ZM249.38 89.75L250.20 89.75L250.20 88.11L249.38 88.11ZM249.38 93.04L250.20 93.04L250.20 91.39L249.38 91.39ZM249.38 96.32L250.20 96.32L250.20 94.68L249.38 94.68Z"/><path fill="rgb(255, 255, 255)" d="M32.66 148.89L33.48 148.89L33.48 147.25L32.66 147.25ZM32.66 152.18L33.48 152.18L33.48 150.54L32.66 150.54ZM35.95 148.89L36.77 148.89L36.77 147.25L35.95 147.25ZM35.95 152.18L36.77 152.18L36.77 150.54L35.95 150.54ZM26.09 148.89L26.91 148.89L26.91 147.25L26.09 147.25ZM26.09 152.18L26.91 152.18L26.91 150.54L26.09 150.54ZM29.38 148.89L30.20 148.89L30.20 147.25L29.38 147.25ZM29.38 152.18L30.20 152.18L30.20 150.54L29.38 150.54ZM19.52 148.89L20.34 148.89L20.34 147.25L19.52 147.25ZM19.52 152.18L20.34 152.18L20.34 150.54L19.52 150.54ZM22.80 148.89L23.63 148.89L23.63 147.25L22.80 147.25ZM22.80 152.18L23.63 152.18L23.63 150.54L22.80 150.54ZM39.23 145.61L40.05 145.61L40.05 143.96L39.23 143.96ZM42.52 145.61L43.34 145.61L43.34 143.96L42.52 143.96ZM39.23 139.04L40.05 139.04L40.05 137.39L39.23 137.39ZM39.23 119.32L40.05 119.32L40.05 117.68L39.23 117.68ZM39.23 122.61L40.05 122.61L40.05 120.96L39.23 120.96ZM39.23 132.46L40.05 132.46L40.05 130.82L39.23 130.82ZM39.23 135.75L40.05 135.75L40.05 134.11L39.23 134.11ZM42.52 119.32L43.34 119.32L43.34 117.68L42.52 117.68ZM42.52 122.61L43.34 122.61L43.34 120.96L42.52 120.96ZM42.52 132.46L43.34 132.46L43.34 130.82L42.52 130.82ZM42.52 135.75L43.34 135.75L43.34 134.11L42.52 134.11ZM39.23 125.89L40.05 125.89L40.05 124.25L39.23 124.25ZM39.23 129.18L40.05 129.18L40.05 127.54L39.23 127.54ZM32.66 139.04L33.48 139.04L33.48 137.39L32.66 137.39ZM32.66 142.32L33.48 142.32L33.48 140.68L32.66 140.68ZM42.52 125.89L43.34 125.89L43.34 124.25L42.52 124.25ZM42.52 129.18L43.34 129.18L43.34 127.54L42.52 127.54ZM35.95 139.04L36.77 139.04L36.77 137.39L35.95 137.39ZM35.95 142.32L36.77 142.32L36.77 140.68L35.95 140.68ZM26.09 139.04L26.91 139.04L26.91 137.39L26.09 137.39ZM26.09 142.32L26.91 142.32L26.91 140.68L26.09 140.68ZM29.38 139.04L30.20 139.04L30.20 137.39L29.38 137.39ZM29.38 142.32L30.20 142.32L30.20 140.68L29.38 140.68ZM19.52 119.32L20.34 119.32L20.34 117.68L19.52 117.68ZM19.52 122.61L20.34 122.61L20.34 120.96L19.52 120.96ZM19.52 125.89L20.34 125.89L20.34 124.25L19.52 124.25ZM19.52 129.18L20.34 129.18L20.34 127.54L19.52 127.54ZM19.52 132.46L20.34 132.46L20.34 130.82L19.52 130.82ZM19.52 135.75L20.34 135.75L20.34 134.11L19.52 134.11ZM39.23 142.32L40.05 142.32L40.05 140.68L39.23 140.68ZM22.80 119.32L23.63 119.32L23.63 117.68L22.80 117.68ZM22.80 122.61L23.63 122.61L23.63 120.96L22.80 120.96ZM22.80 125.89L23.63 125.89L23.63 124.25L22.80 124.25ZM22.80 129.18L23.63 129.18L23.63 127.54L22.80 127.54ZM22.80 132.46L23.63 132.46L23.63 130.82L22.80 130.82ZM22.80 135.75L23.63 135.75L23.63 134.11L22.80 134.11ZM42.52 139.04L43.34 139.04L43.34 137.39L42.52 137.39ZM42.52 142.32L43.34 142.32L43.34 140.68L42.52 140.68Z"/><path fill="rgb(255, 255, 255)" d="M70.23 125.89L71.05 125.89L71.05 124.25L70.23 124.25ZM70.23 129.18L71.05 129.18L71.05 127.54L70.23 127.54ZM70.23 132.46L71.05 132.46L71.05 130.82L70.23 130.82ZM70.23 135.75L71.05 135.75L71.05 134.11L70.23 134.11ZM73.52 125.89L74.34 125.89L74.34 124.25L73.52 124.25ZM73.52 129.18L74.34 129.18L74.34 127.54L73.52 127.54ZM73.52 132.46L74.34 132.46L74.34 130.82L73.52 130.82ZM73.52 135.75L74.34 135.75L74.34 134.11L73.52 134.11ZM63.66 119.32L64.48 119.32L64.48 117.68L63.66 117.68ZM63.66 122.61L64.48 122.61L64.48 120.96L63.66 120.96ZM63.66 139.04L64.48 139.04L64.48 137.39L63.66 137.39ZM63.66 142.32L64.48 142.32L64.48 140.68L63.66 140.68ZM66.95 119.32L67.77 119.32L67.77 117.68L66.95 117.68ZM66.95 122.61L67.77 122.61L67.77 120.96L66.95 120.96ZM66.95 139.04L67.77 139.04L67.77 137.39L66.95 137.39ZM66.95 142.32L67.77 142.32L67.77 140.68L66.95 140.68ZM57.09 119.32L57.91 119.32L57.91 117.68L57.09 117.68ZM57.09 122.61L57.91 122.61L57.91 120.96L57.09 120.96ZM57.09 139.04L57.91 139.04L57.91 137.39L57.09 137.39ZM57.09 142.32L57.91 142.32L57.91 140.68L57.09 140.68ZM60.38 119.32L61.20 119.32L61.20 117.68L60.38 117.68ZM60.38 122.61L61.20 122.61L61.20 120.96L60.38 120.96ZM60.38 139.04L61.20 139.04L61.20 137.39L60.38 137.39ZM60.38 142.32L61.20 142.32L61.20 140.68L60.38 140.68ZM50.52 125.89L51.34 125.89L51.34 124.25L50.52 124.25ZM50.52 129.18L51.34 129.18L51.34 127.54L50.52 127.54ZM50.52 132.46L51.34 132.46L51.34 130.82L50.52 130.82ZM50.52 135.75L51.34 135.75L51.34 134.11L50.52 134.11ZM53.80 125.89L54.63 125.89L54.63 124.25L53.80 124.25ZM53.80 129.18L54.63 129.18L54.63 127.54L53.80 127.54ZM53.80 132.46L54.63 132.46L54.63 130.82L53.80 130.82ZM53.80 135.75L54.63 135.75L54.63 134.11L53.80 134.11Z"/><path fill="rgb(255, 255, 255)" d="M102.23 139.04L103.05 139.04L103.05 137.39L102.23 137.39ZM102.23 119.32L103.05 119.32L103.05 117.68L102.23 117.68ZM102.23 122.61L103.05 122.61L103.05 120.96L102.23 120.96ZM102.23 132.46L103.05 132.46L103.05 130.82L102.23 130.82ZM102.23 135.75L103.05 135.75L103.05 134.11L102.23 134.11ZM105.52 119.32L106.34 119.32L106.34 117.68L105.52 117.68ZM105.52 122.61L106.34 122.61L106.34 120.96L105.52 120.96ZM105.52 132.46L106.34 132.46L106.34 130.82L105.52 130.82ZM105.52 135.75L106.34 135.75L106.34 134.11L105.52 134.11ZM102.23 125.89L103.05 125.89L103.05 124.25L102.23 124.25ZM102.23 129.18L103.05 129.18L103.05 127.54L102.23 127.54ZM95.66 139.04L96.48 139.04L96.48 137.39L95.66 137.39ZM95.66 142.32L96.48 142.32L96.48 140.68L95.66 140.68ZM105.52 125.89L106.34 125.89L106.34 124.25L105.52 124.25ZM105.52 129.18L106.34 129.18L106.34 127.54L105.52 127.54ZM98.95 139.04L99.77 139.04L99.77 137.39L98.95 137.39ZM98.95 142.32L99.77 142.32L99.77 140.68L98.95 140.68ZM89.09 139.04L89.91 139.04L89.91 137.39L89.09 137.39ZM89.09 142.32L89.91 142.32L89.91 140.68L89.09 140.68ZM92.38 139.04L93.20 139.04L93.20 137.39L92.38 137.39ZM92.38 142.32L93.20 142.32L93.20 140.68L92.38 140.68ZM82.52 119.32L83.34 119.32L83.34 117.68L82.52 117.68ZM82.52 122.61L83.34 122.61L83.34 120.96L82.52 120.96ZM82.52 125.89L83.34 125.89L83.34 124.25L82.52 124.25ZM82.52 129.18L83.34 129.18L83.34 127.54L82.52 127.54ZM82.52 132.46L83.34 132.46L83.34 130.82L82.52 130.82ZM82.52 135.75L83.34 135.75L83.34 134.11L82.52 134.11ZM102.23 142.32L103.05 142.32L103.05 140.68L102.23 140.68ZM85.80 119.32L86.63 119.32L86.63 117.68L85.80 117.68ZM85.80 122.61L86.63 122.61L86.63 120.96L85.80 120.96ZM85.80 125.89L86.63 125.89L86.63 124.25L85.80 124.25ZM85.80 129.18L86.63 129.18L86.63 127.54L85.80 127.54ZM85.80 132.46L86.63 132.46L86.63 130.82L85.80 130.82ZM85.80 135.75L86.63 135.75L86.63 134.11L85.80 134.11ZM105.52 139.04L106.34 139.04L106.34 137.39L105.52 137.39ZM105.52 142.32L106.34 142.32L106.34 140.68L105.52 140.68Z"/></svg>